<?xml version="1.0" encoding="utf-8"?>

<!-- Generator: Adobe Illustrator 12.0.0, SVG Export Plug-In . SVG Version: 6.00 Build 51448)  -->
<!-- Interactive SVG document for "HTML5 in easy steps" by Mike McGrath at www.ineasysteps.com -->
<!-- HTML5 in easy steps:example 48.2: Validated by W3C Validation Service at validator.w3.org -->

<!DOCTYPE svg PUBLIC "-//W3C//DTD SVG 1.1//EN" "http://www.w3.org/Graphics/SVG/1.1/DTD/svg11.dtd" [
	<!ENTITY ns_svg "http://www.w3.org/2000/svg">
	<!ENTITY ns_xlink "http://www.w3.org/1999/xlink">
]>

<svg  version="1.1" id="Layer_1" xmlns="&ns_svg;" xmlns:xlink="&ns_xlink;" width="100%" height="100%"
	 viewBox="0 0 283 202" preserveAspectRatio="none" overflow="visible" enable-background="new 0 0 283 202" xml:space="preserve">
	 

<!-- Mikes Note: Start of my interactive elements -->	 
<script>
<![CDATA[ function dye(hue){ document.getElementById("tee").setAttribute("fill",hue); } ]]>
</script>	 
<circle cx="50" cy="180" r="12" fill="fuchsia" stroke="black" stroke-width="2" onclick="dye('fuchsia')" />
<circle cx="90" cy="180" r="12" fill="lime" stroke="black" stroke-width="2" onclick="dye('lime')" />
<circle cx="130" cy="180" r="12" fill="aqua" stroke="black" stroke-width="2" onclick="dye('aqua')" />
<circle cx="170" cy="180" r="12" fill="yellow" stroke="black" stroke-width="2" onclick="dye('yellow')" />
<circle cx="210" cy="180" r="12" fill="white" stroke="black" stroke-width="2" onclick="dye('white')" />
<!-- Mikes Note: End of my interactive elements -->	  

	 
<g>
	<g>
		<g>
			<g id="XMLID_1_">
				<g>
					<path fill="lightgray" d="M235.593,106.437c2,3,4.42,5.195,7.415,6.415c3.3,1.396,6.729,2.285,10.159,2.92l4.315,1.016
						c3.685,0.635,7.49,1.904,11.43,3.68c3.936,1.905,7.11,5.335,9.396,10.285c0.885,2.54,0.76,4.445-0.385,5.715
						c-1.016,1.145-1.9,1.905-2.535,2.03c-0.386-2.155-1.146-4.19-2.415-6.09c-2.41-3.686-5.715-6.605-9.65-8.636
						c-3.935-2.16-7.615-3.81-11.045-4.955l-4.445-1.904c-1.015-0.125-1.649,0-2.159,0.89c-0.25,0.89,0,1.525,0.765,1.905
						l4.825,1.904c3.175,1.146,6.6,2.665,10.285,4.57c3.68,2.03,6.6,4.57,8.885,7.745c2.285,4.065,2.795,7.875,1.649,11.555
						c-0.505,1.775-1.774,3.045-3.805,4.065c-2.415,0.38-4.445,0-6.095-1.271l-2.67-2.54l0.13-1.524l-0.38-4.19
						c-1.016-4.064-3.176-7.87-6.605-11.045c-3.425-3.3-6.729-5.97-9.899-8.255l-2.671-2.03c-0.699-4.765-2.539-8.604-5.539-11.524
						L235.593,106.437z"/>
					<path fill="lightgray" d="M209.997,109.802c0.255,0.89,0.891,1.271,1.78,1.146c0.885-0.256,1.271-0.891,1.271-1.78
						c-0.636-2.535-1.021-5.84-1.021-9.9c-0.125-4.064,0.765-7.109,2.29-9.015c2.03-1.65,4.185-2.795,6.475-3.3
						c2.79-0.636,4.95-1.905,6.471-4.065c1.145-3.175,0.385-5.84-2.03-8c-1.271-1.395-2.03-2.92-2.41-4.57
						c-0.13-1.525,1.015-3.175,3.555-4.825c0.761-0.635,2.155-1.015,4.19-1.27c1.905-0.255,4.19,0.38,6.855,2.035
						c3.555,3.045,5.204,6.22,5.079,9.395c-0.255,4.825-1.145,7.995-2.92,9.52l-1.145,0.89c-2.16,1.396-3.936,3.556-5.46,6.351
						c-1.396,2.92-0.891,7.109,1.78,12.694c0.27,0.46,0.545,0.905,0.835,1.33l-1.045,0.73c-3-2.92-7.16-4.92-12.49-5.995
						c-1.016,0-1.521,0.38-1.775,1.27c-0.125,0.886,0.255,1.521,1.141,1.775c3.555,0.51,6.859,1.905,9.904,4.19
						c3.175,2.284,5.08,6.095,5.84,11.3v0.76l3.686,2.795c3.045,2.03,6.09,4.57,9.265,7.49c3.175,3.05,5.205,6.35,6.095,9.905
						c0.891,5.46-0.125,9.904-2.789,13.204c-0.891,1.141-2.29,1.775-4.065,1.905c-2.795,0-4.825-2.67-6.095-8.255l-1.016-3.425
						c-2.795-8-7.109-14.095-12.949-18.16c-6.985-4.695-11.556-9.015-13.841-12.95c-0.635-0.76-1.27-1.015-2.159-0.635
						c-0.761,0.635-0.886,1.27-0.506,2.035l0.886,1.52l-10.025,4.57c-1.655-2.41-2.16-4.695-1.78-6.855l8-4.444L209.997,109.802z"/>
					<path fill="gray" d="M206.188,101.932c0.635,0.38,1.145,0.255,1.78-0.255c0.149-0.3,0.22-0.56,0.22-0.795l0.755-0.005
						c0.01,1.68,0.155,3.345,0.42,4.99l-10.79,5.97c0.505-5.08,1.905-8.255,4.315-9.78L206.188,101.932z"/>
					<path d="M198.317,38.067c-0.51,0.635-1.145,0.89-1.78,0.51c-0.635-0.38-0.76-1.015-0.505-1.78
						c1.271-2.285,4.061-4.95,8.505-7.995c4.445-3.05,9.65-4.065,15.745-3.175c0.76,0.25,1.016,0.76,1.016,1.52
						c-0.256,0.765-0.761,1.02-1.525,1.02c-5.075-0.89-9.396,0-13.205,2.41c2.16,1.65,3.175,3.81,3.305,6.35
						c-0.13,0.76-0.635,1.14-1.27,1.14c-0.766-0.125-1.016-0.76-1.016-1.775c-0.255-1.4-1.27-2.795-3.05-4.065l-0.255-0.255
						C201.112,34.512,199.077,36.547,198.317,38.067z"/>
					<path fill="lightgray" d="M196.537,38.577c0.636,0.38,1.271,0.125,1.78-0.51c0.76-1.52,2.795-3.555,5.965-6.095l0.255,0.255
						c1.78,1.27,2.795,2.665,3.05,4.065c0,1.015,0.25,1.65,1.016,1.775c0.635,0,1.14-0.38,1.27-1.14
						c-0.13-2.54-1.145-4.7-3.305-6.35c3.81-2.41,8.13-3.3,13.205-2.41c0.765,0,1.27-0.255,1.525-1.02c0-0.76-0.256-1.27-1.016-1.52
						c-6.095-0.89-11.3,0.125-15.745,3.175c-4.444,3.045-7.234,5.71-8.505,7.995C195.777,37.562,195.902,38.197,196.537,38.577z
						 M78.208,62.952c2.285,1.27,4.695,1.905,7.365,2.035c2.665,0,4.445-0.13,5.205-0.635c0.635-0.51,0.635-1.02,0.38-1.78
						c-0.505-0.505-1.015-0.635-1.775-0.38h0.125l-4.445,0.125c-2.285-0.125-4.315-0.76-6.095-1.775c-1.14-0.89-1.65-2.03-1.52-3.43
						c0.125-1.14,0.505-1.905,1.265-2.285l5.335-0.255l6.475,1.905c0.76,0.13,1.27-0.125,1.65-0.885c0.13-0.51,0-1.02-0.635-1.4
						l6.22,0.635l0.255,0.255c6.225,5.46,15.745,8,28.825,7.62c15.995-1.02,26.155-5.46,30.595-13.335l0.385-0.125l0.25-0.255
						c2.16-1.525,5.715-3.68,10.795-6.6c5.075-2.795,10.915-5.205,17.396-7.11c0,0.38,0.25,0.76,0.635,1.015
						c0.76,0.38,1.52,0.255,2.155-0.51c2.414-3.81,7.109-8.38,14.22-13.71c6.984-5.205,13.84-8.125,20.314-8.51
						c4.19,0.13,7.24,2.035,9.271,5.845c1.905,3.425,1.395,7.49-1.525,11.93c-3.3,4.955-8.635,9.145-16.38,12.445
						c-7.615,3.3-17.01,4.445-28.055,3.68c-0.891-0.125-1.4,0.385-1.655,1.27c0,1.015,0.385,1.525,1.4,1.65l1.395,0.13
						c1.271,0.635,2.03,1.395,2.41,2.41c-2.92,4.445-9.52,10.03-19.93,16.255c-10.54,6.22-26.03,10.535-46.725,12.695
						c-13.075,1.015-24.125,0.89-33.135-0.511l0.63-1.52c0.51-1.655,0.385-3.305-0.125-5.08c6.095,0.89,12.57,0.635,19.3-0.89
						c6.73-1.525,12.695-3.175,18.03-5.08l2.155-0.635c4.825-1.395,10.415-2.41,16.76-3.045l15.11-0.51l-1.525,1.27
						c-0.635,0.51-0.76,1.02-0.505,1.78c0.38,0.635,1.015,0.89,1.65,0.505c1.649-0.885,2.92-2.285,3.81-4.315l1.52-4.57
						c0.131-0.76-0.25-1.27-0.885-1.525c-0.89,0-1.399,0.255-1.524,1.015c-0.255,1.145-0.636,2.285-1.271,3.685
						c-3.555-0.38-8.635-0.255-15.615,0.38c-6.859,0.505-12.955,1.65-18.16,3.175l-2.285,0.76c-5.46,1.905-11.55,3.555-18.535,5.08
						c-6.855,1.395-13.33,1.525-19.425,0.38c-0.89-1.395-2.16-2.54-3.555-3.555c-3.555-2.285-7.875-3.68-12.95-4.315
						c-4.955-0.635-9.4-0.13-13.335,1.14c-2.155,0.765-3.805,2.03-5.075,3.555c-6.475-4.19-10.795-7.615-13.205-10.41l13.71,1.14
						c6.095,0,11.555-0.635,16.255-1.65l3.3-1.015C74.777,59.652,75.797,61.557,78.208,62.952z"/>
					<path fill="lightgray" d="M148.928,12.802c14.854,3.43,26.279,7.49,34.024,12.19c-8.38,2.03-15.74,3.68-22.345,5.08l-10.79,2.155
						c-6.605-3.425-14.73-5.08-24.505-4.825l-2.795,0.38c2.795-2.155,6.22-5.075,10.285-8.885l8.125-7.49L148.928,12.802z"/>
					<polygon fill="gray" points="138.137,83.142 136.232,84.917 136.232,83.521 					"/>
					<path fill="white" d="M134.708,37.687c1.14-1.015,2.92-1.14,5.08-0.505c0.505,0,1.775,0.635,3.68,1.9
						c2.029,1.27,3.175,3.305,3.555,6.095v0.51c-0.38,3.935-1.905,6.35-4.57,6.98c-3.3,1.145-5.585,1.27-6.475,0.385
						c-0.13-0.385,0.125-1.015,0.635-2.035c0.635-1.14,1.14-2.41,1.395-3.935c0.38-1.395-0.125-3.045-1.27-4.825
						C134.833,39.212,134.197,37.817,134.708,37.687z"/>
					<path fill="lightgray" d="M133.692,86.187c-1.78,0.511-3.175,0.766-4.445,0.636l-0.125-1.396c1.52,0.125,2.92-0.125,4.57-0.635
						V86.187z"/>
					<path fill="gray" d="M126.583,84.667l0.125,1.774c-1.395-0.505-2.54-0.89-3.175-1.395L126.583,84.667z"/>
					<path fill="lightgray" d="M73.507,35.147c0.385,0.765,0.255,2.16-0.38,4.445c-0.38,0.51-0.89,0.89-1.65,1.015l-5.205-1.14
						c-1.78-1.02-4.315-2.54-7.365-4.7l-9.14-6.475c2.285-1.78,5.08-3.555,8.25-5.335c9.905-5.33,22.35-9.01,37.205-11.17
						c14.98-2.03,28.945-2.285,42.15-0.76l-14.98,12.06c-3.43,2.54-6.095,4.57-8,5.84c-3.3,0.76-6.22,1.78-8.885,3.045
						c-0.89,0.13-1.655-0.125-2.29-0.76c-0.76-1.015-0.76-2.16-0.125-3.555c0.255-0.51,0.125-0.89-0.38-1.145
						c-0.51-0.125-0.89,0-1.145,0.51c-0.885,2.03-0.885,3.81,0.13,5.335l1.14,1.015c-4.95,3.045-7.87,6.6-8.76,10.79l-7.49,0.89
						l-6.22-0.51l-0.385-0.125c-1.52-1.145-3.555-2.16-5.965-3.045l0.635-0.765c1.015-3.045,1.145-4.95,0.38-5.715
						c-0.125-0.635-0.505-0.885-1.14-0.76C73.507,34.257,73.257,34.642,73.507,35.147z"/>
					<path id="tee" fill="white" d="M90.777,109.677c1.395-3.43,2.16-6.475,2.54-9.14c2.79,1.395,4.57,5.71,5.205,12.949
						c0,0.891,0.505,1.396,1.395,1.525c1.015,0,1.525-0.51,1.65-1.4c0-2.409-0.25-4.444-0.76-6.345
						c2.54,0.38,4.95,1.521,6.985,3.425l2.155,0.131c0.635-0.636,0.635-1.4,0.13-2.16l-2.415-1.905l7.745-14.98
						c2.03,1.521,4.7,2.41,8,2.41c1.015,0,1.525-0.505,1.525-1.524c0-0.886-0.51-1.396-1.525-1.521
						c-5.46-0.635-8.505-2.54-9.14-5.59l6.09-0.38c1.27,2.16,3.81,3.43,7.875,4.064c5.84,0.636,10.41-1.649,13.585-6.729
						l6.095-1.396c0.38,1.521,0.255,2.921-0.255,4.19c-3.045,0.505-5.335,1.775-6.855,3.805c-1.4,2.16-2.54,4.32-3.43,6.73
						c-0.255,0.89,0.13,1.524,0.89,2.03c0.89,0.255,1.525-0.125,2.03-0.886c1.145-5.08,3.935-8,8.38-8.76
						c3.935,0,6.854,2.79,9.015,8.25l3.175,5.46c1.775,2.54,3.811,4.95,5.965,7.11c2.16,2.03,3.811,3.685,5.08,4.569
						c-1.524,1.905-2.665,3.936-3.3,6.096c-0.255,1.015,0.125,1.649,0.89,1.904c1.016,0.256,1.65-0.125,1.905-1.015
						c0.885-2.285,1.9-4.32,3.555-5.84c1.521-1.65,2.665-2.415,3.681-2.415l2.92,0.765c3.81,1.521,6.35,1.521,7.87,0
						c0.255-0.255,0.51-1.27,0.635-3.05c0.255-2.665,1.015-6.095,2.16-10.285c1.27-4.189,3.43-7.234,6.6-9.265
						c2.925-1.65,6.73-1.4,11.43,0.76c-0.909,3.3-1.335,6.49-1.31,9.61l-0.755,0.005c0-0.365-0.17-0.675-0.476-0.98
						c-1.904-1.27-3.935-1.27-6.22,0.125c-1.905,1.146-3.43,3.301-4.569,6.605c-1.146,3.17-1.146,7.615-0.131,12.95
						c1.396,5.71,3.431,9.265,5.971,10.79c2.41,1.399,4.314,2.035,5.585,1.779c3.555-0.38,5.84-1.904,6.475-4.699
						c0-0.891-0.38-1.271-1.015-1.525c-0.891,0-1.271,0.385-1.525,1.146c-0.255,1.395-1.649,2.284-4.064,2.539
						c-2.79,0-5.075-1.524-6.855-4.824l14.22-6.476c1.78,2.155,4.19,4.445,7.24,6.73l0.125,1.649c0.255,0.761,0,2.41-0.505,4.57
						c-0.635,2.285-1.78,4.445-3.685,6.6c-2.921,3.051-6.855,3.94-11.556,2.671c-4.95-1.271-8.76-2.54-11.55-3.556
						c-2.67-1.145-5.08-1.779-7.24-2.16c-2.285-0.255-4.825,0.125-7.745,1.271l-0.505,0.125c-3.175,1.27-5.715,1.905-7.875,1.905
						c-2.154,0-4.06-1.271-5.585-3.811c-2.285-4.06-5.715-9.14-10.665-15.109c-4.95-6.091-11.175-10.41-18.665-13.075
						c-0.89-0.125-1.525,0.255-1.905,1.015c-0.125,1.015,0.255,1.65,1.015,1.905c2.67,0.76,5.08,1.905,7.365,3.43l0.13,2.79
						c-0.635,5.08,0.635,9.78,4.06,14.35c6.476,6.601,9.271,11.806,8.38,15.87c-0.255,0.891-0.89,1.65-2.159,2.285
						c-4.44,1.65-9.9,1.016-16.63-1.905c-4.315-2.159-8.76-4.444-13.33-6.984c-4.825-2.665-8.76-4.695-11.935-6.09
						c-4.57-1.271-7.11-1.146-7.62,0.38c-1.015,1.395-1.015,3.175,0.255,5.075c0.51,0.765,1.27,0.89,2.03,0.385
						c0.765-0.51,0.89-1.271,0.51-2.035c-0.51-0.76-0.635-1.27-0.38-1.52c0.25-0.511,1.65-0.381,4.06,0.505l0.38,0.13l-7.11,7.365
						c-1.015,0-2.79-1.021-5.205-3.176c-1.775-2.035-2.54-4.574-2.285-7.489c0.51-2.671,2.285-5.335,5.46-7.875
						c3.05-2.665,6.095-5.08,9.14-6.985l4.955-3.68c3.425-3.431,5.46-7.235,5.965-11.301l0.51-2.029
						c0.255-0.891-0.13-1.525-1.015-1.78c-1.02-0.255-1.525,0.13-1.905,1.015l-0.51,2.035c-0.505,3.805-2.285,7.11-5.08,9.9
						l-4.695,3.305c-3.175,2.155-6.35,4.44-9.395,7.235c-3.175,2.665-5.205,5.585-6.225,8.635l-5.965,0.38
						c3.045-4.314,4.57-6.985,4.445-7.745c0.125-0.89-0.13-1.524-0.89-1.905c-0.89-0.255-1.395,0.125-1.65,1.016
						c0,0.51-1.015,2.415-3.175,5.585c-2.16,3.305-6.22,5.97-12.19,8.13l-13.585,0.38c-3.81-1.145-6.98-2.665-9.14-4.57
						c5.84,1.271,10.79,1.016,14.98-0.89c3.305-1.905,4.825-4.57,4.7-7.87c1.905,0.635,5.84-1.02,12.06-4.7
						C87.092,116.151,89.507,113.106,90.777,109.677z"/>
					<path fill="lightgray" d="M66.397,80.727c-4.44-1.395-7.87-1.395-10.535,0l-0.255,0.13c-0.635-1.904-0.635-4.189,0.125-6.729
						c0.635-2.665,2.415-4.57,5.335-5.84c3.425-1.145,7.49-1.525,11.935-0.89c4.57,0.635,8.38,1.905,11.555,3.81
						c3.3,2.665,4.695,5.33,3.805,7.87c-0.635,2.159-2.665,3.43-5.965,3.555c-5.335-0.255-9.65-1.271-12.695-3.425
						c-3.175-2.035-4.7-3.305-4.825-3.555l-2.16-0.13c-0.635,0.765-0.635,1.4-0.125,2.16L66.397,80.727z"/>
					<path fill="white" d="M69.702,47.462c1.395,0.765,2.285,1.78,2.665,3.175v0.13c0,0.38-0.255,0.76-0.51,1.015
						c-1.14,1.14-3.3,1.65-6.73,1.27l-2.41-0.51l1.14-0.635c1.4-0.505,2.16-1.27,2.415-2.16v-0.125c0-0.51-0.255-0.89-0.635-1.145
						c-1.27-1.14-1.78-1.775-1.65-1.775l3.045-0.255L69.702,47.462z"/>
					<path fill="lightgray" d="M57.002,83.521c3.555-1.395,7.365-0.89,11.045,1.65c5.59,4.7,8.38,8.76,8.13,12.064
						c0.25,3.301,0.125,5.33-0.51,5.966c-1.395,1.395-2.665,2.029-3.935,2.029l-2.285-0.38c-1.27-3.3-3.05-6.35-5.59-8.885
						c-2.92-3.175-7.235-5.46-13.2-6.985C51.542,86.952,53.577,85.172,57.002,83.521z"/>
					<path fill="lightgray" d="M66.697,115.747c1.615-0.811,2.61-1.88,3.005-3.15c0.38-1.395,0.635-2.92,0.38-4.445
						c2.54,0.636,5.205-0.38,7.87-3.045c1.395-1.779,1.65-4.569,1.27-8.255c0.125-3.805-2.795-8.38-8.635-13.585l3.175,1.146
						l0.13,0.255l6.345,8.505c0.765,0.51,1.525,0.51,2.16,0c0.635-0.76,0.635-1.525,0-2.16l-0.51-0.635l0.13-0.125
						c0.635-2.665,2.03-4.445,4.19-5.335h0.125c0.635-0.25,1.27-0.505,1.905-0.885c5.585,1.015,11.555,1.52,18.03,1.52
						c0.255,1.525,0,2.67-0.51,3.43c-0.505,0.636-1.395,1.016-2.665,1.016c-7.62,0.635-11.81,3.05-12.44,7.239l-0.13,0.886
						c-0.255,2.285-0.89,5.205-1.905,8.76c-1.14,3.555-3.425,6.729-6.6,9.27c-5.97,3.431-9.395,4.825-10.41,4.19
						c-0.255-1.525-0.635-2.92-1.02-3.935c-0.38-0.891-1.015-1.146-2.03-0.891c-0.39,0.165-0.655,0.405-0.8,0.695L66.697,115.747z"
						/>
					<path fill="lightgray" d="M60.052,116.532c0.125,0.89-0.13,1.524-0.635,2.159c-0.635,0.636-1.65,1.016-3.05,0.891
						c-1.905-0.255-3.805-0.891-5.585-1.905c-1.775-1.145-2.92-1.905-3.3-2.415c-0.635-0.635-1.27-0.76-2.16-0.38
						c-0.635,0.635-0.76,1.27-0.38,2.16c0.635,0.76,2.03,1.905,4.19,3.175s4.445,2.03,6.985,2.41c2.285,0.13,4.185-0.505,5.585-2.03
						c0.89-1.015,1.395-2.285,1.395-3.685c1.43-0.285,2.625-0.676,3.6-1.165l1.06,0.465c-0.19,0.375-0.175,0.835,0.04,1.335
						c0.38,0.51,0.76,2.285,1.015,5.59c0,2.285-1.015,4.061-3.175,5.46c-2.795,1.14-6.22,1.521-10.41,1.015
						c-4.19-0.635-7.875-2.034-11.175-4.064c-5.08-3.811-8-8.125-8.505-13.205c-0.255-2.92,0.89-5.33,3.045-7.235l1.015-0.635
						l0.385-0.125l7.11-0.255c2.535,0.635,4.44,1.395,5.585,2.285C56.752,109.552,59.163,112.977,60.052,116.532z"/>
					<path fill="lightgray" d="M58.652,38.832l-3.3-0.13c-6.6,0.13-12.19,0.765-16.63,2.16c1.14-2.665,4.19-6.22,8.885-10.79
						L58.652,38.832z"/>
					<path fill="lightgray" d="M54.847,93.427c3.045,1.396,5.33,2.92,6.855,4.695c4.445,5.08,6.22,9.524,5.205,13.335
						c-0.635,1.52-2.03,2.285-4.315,2.41c-2.035-4.19-4.7-7.49-8-9.905c-3.555-2.665-8.255-3.68-13.965-3.045
						c-0.385-3.3,1.52-6.22,5.71-8.635C49.007,91.646,51.797,91.901,54.847,93.427z"/>
					<path fill="lightgray" d="M26.277,28.292c5.715,2.16,9.905,4.445,12.695,6.6l-2.535,3.685c-2.415-1.525-6.225-3.3-11.43-5.205
						c-5.46-2.035-10.285-2.16-14.725-0.38c-0.635,0.38-0.765,1.015-0.385,1.65c0.385,0.76,1.02,0.885,1.65,0.635
						c3.56-1.525,7.75-1.27,12.57,0.505c-2.155,1.27-3.425,3.175-3.805,5.715c-0.13,0.76,0.125,1.27,0.76,1.525
						c0.76,0,1.14-0.51,1.27-1.27c0-1.78,1.65-3.305,5.08-4.7v-0.125c3.805,1.775,6.475,3.045,7.87,3.935l-0.635,1.395v0.13
						c-3.555,1.775-5.715,3.935-6.095,6.725c-4.695-0.125-9.265-1.14-13.585-2.92c-4.445-1.9-7.615-4.19-9.905-7.11
						c-1.775-2.535-2.155-5.075-1.14-7.745c1.015-2.79,3.045-4.57,6.35-5.33C15.232,25.247,20.563,26.007,26.277,28.292z"/>
					<path d="M213.048,109.167c0,0.89-0.386,1.524-1.271,1.78c-0.89,0.125-1.525-0.256-1.78-1.146l-0.125-0.635l-8,4.444
						c-0.38,2.16,0.125,4.445,1.78,6.855l10.025-4.57l-0.886-1.52c-0.38-0.766-0.255-1.4,0.506-2.035
						c0.89-0.38,1.524-0.125,2.159,0.635c2.285,3.936,6.855,8.255,13.841,12.95c5.84,4.065,10.154,10.16,12.949,18.16l1.016,3.425
						c1.27,5.585,3.3,8.255,6.095,8.255c1.775-0.13,3.175-0.765,4.065-1.905c2.664-3.3,3.68-7.744,2.789-13.204
						c-0.89-3.556-2.92-6.855-6.095-9.905c-3.175-2.92-6.22-5.46-9.265-7.49l-3.686-2.795v-0.76c-0.76-5.205-2.665-9.016-5.84-11.3
						c-3.045-2.285-6.35-3.681-9.904-4.19c-0.886-0.255-1.266-0.89-1.141-1.775c0.255-0.89,0.76-1.27,1.775-1.27
						c5.33,1.075,9.49,3.075,12.49,5.995s4.84,6.76,5.539,11.524l2.671,2.03c3.17,2.285,6.475,4.955,9.899,8.255
						c3.43,3.175,5.59,6.98,6.605,11.045l0.38,4.19l-0.13,1.524l2.67,2.54c1.649,1.271,3.68,1.65,6.095,1.271
						c2.03-1.021,3.3-2.29,3.805-4.065c1.146-3.68,0.636-7.489-1.649-11.555c-2.285-3.175-5.205-5.715-8.885-7.745
						c-3.686-1.905-7.11-3.425-10.285-4.57l-4.825-1.904c-0.765-0.38-1.015-1.016-0.765-1.905c0.51-0.89,1.145-1.015,2.159-0.89
						l4.445,1.904c3.43,1.146,7.11,2.795,11.045,4.955c3.936,2.03,7.24,4.95,9.65,8.636c1.27,1.899,2.029,3.935,2.415,6.09
						c0.635-0.125,1.52-0.886,2.535-2.03c1.145-1.27,1.27-3.175,0.385-5.715c-2.285-4.95-5.46-8.38-9.396-10.285
						c-3.939-1.775-7.745-3.045-11.43-3.68l-4.315-1.016c-3.43-0.635-6.859-1.524-10.159-2.92c-2.995-1.22-5.415-3.415-7.415-6.415
						c-0.29-0.425-0.565-0.87-0.835-1.33c-2.671-5.585-3.176-9.774-1.78-12.694c1.524-2.795,3.3-4.955,5.46-6.351l1.145-0.89
						c1.775-1.525,2.665-4.695,2.92-9.52c0.125-3.175-1.524-6.35-5.079-9.395c-2.665-1.655-4.95-2.29-6.855-2.035
						c-2.035,0.255-3.43,0.635-4.19,1.27c-2.54,1.65-3.685,3.3-3.555,4.825c0.38,1.65,1.14,3.175,2.41,4.57
						c2.415,2.16,3.175,4.825,2.03,8c-1.521,2.16-3.681,3.43-6.471,4.065c-2.29,0.505-4.444,1.649-6.475,3.3
						c-1.525,1.905-2.415,4.95-2.29,9.015C212.027,103.327,212.412,106.632,213.048,109.167z M25.007,33.372
						c5.205,1.905,9.015,3.68,11.43,5.205l2.535-3.685c-2.79-2.155-6.98-4.44-12.695-6.6c-5.715-2.285-11.045-3.045-15.995-2.285
						c-3.305,0.76-5.335,2.54-6.35,5.33c-1.015,2.67-0.635,5.21,1.14,7.745c2.29,2.92,5.46,5.21,9.905,7.11
						c4.32,1.78,8.89,2.795,13.585,2.92c0.38-2.79,2.54-4.95,6.095-6.725v-0.13l0.635-1.395c-1.395-0.89-4.065-2.16-7.87-3.935
						v0.125c-3.43,1.395-5.08,2.92-5.08,4.7c-0.13,0.76-0.51,1.27-1.27,1.27c-0.635-0.255-0.89-0.765-0.76-1.525
						c0.38-2.54,1.65-4.445,3.805-5.715c-4.82-1.775-9.01-2.03-12.57-0.505c-0.63,0.25-1.265,0.125-1.65-0.635
						c-0.38-0.635-0.25-1.27,0.385-1.65C14.722,31.212,19.547,31.337,25.007,33.372z M125.313,27.402
						c9.775-0.255,17.899,1.4,24.505,4.825l10.79-2.155c6.604-1.4,13.965-3.05,22.345-5.08c-7.745-4.7-19.17-8.76-34.024-12.19
						l-8-1.395l-8.125,7.49c-4.065,3.81-7.49,6.73-10.285,8.885L125.313,27.402z M136.737,42.257c1.145,1.78,1.65,3.43,1.27,4.825
						c-0.255,1.525-0.76,2.795-1.395,3.935c-0.51,1.02-0.765,1.65-0.635,2.035c0.89,0.885,3.175,0.76,6.475-0.385
						c2.665-0.63,4.19-3.045,4.57-6.98v-0.51c-0.38-2.79-1.525-4.825-3.555-6.095c-1.905-1.265-3.175-1.9-3.68-1.9
						c-2.16-0.635-3.94-0.51-5.08,0.505C134.197,37.817,134.833,39.212,136.737,42.257z M129.248,86.822
						c1.27,0.13,2.665-0.125,4.445-0.636v-1.395c-1.65,0.51-3.05,0.76-4.57,0.635L129.248,86.822z M59.922,65.492
						c3.935-1.27,8.38-1.775,13.335-1.14c5.075,0.635,9.395,2.03,12.95,4.315c1.395,1.015,2.665,2.16,3.555,3.555
						c6.095,1.145,12.57,1.015,19.425-0.38c6.985-1.525,13.075-3.175,18.535-5.08l2.285-0.76c5.205-1.525,11.3-2.67,18.16-3.175
						c6.98-0.635,12.061-0.76,15.615-0.38c0.635-1.4,1.016-2.54,1.271-3.685c0.125-0.76,0.635-1.015,1.524-1.015
						c0.635,0.255,1.016,0.765,0.885,1.525l-1.52,4.57c-0.89,2.03-2.16,3.43-3.81,4.315c-0.636,0.385-1.271,0.13-1.65-0.505
						c-0.255-0.76-0.13-1.27,0.505-1.78l1.525-1.27l-15.11,0.51c-6.345,0.635-11.935,1.65-16.76,3.045l-2.155,0.635
						c-5.335,1.905-11.3,3.555-18.03,5.08c-6.73,1.525-13.205,1.78-19.3,0.89c0.51,1.775,0.635,3.425,0.125,5.08l-0.63,1.52
						c9.01,1.4,20.06,1.525,33.135,0.511c20.695-2.16,36.185-6.475,46.725-12.695c10.41-6.225,17.01-11.81,19.93-16.255
						c-0.38-1.015-1.14-1.775-2.41-2.41l-1.395-0.13c-1.016-0.125-1.4-0.635-1.4-1.65c0.255-0.885,0.765-1.395,1.655-1.27
						c11.045,0.765,20.439-0.38,28.055-3.68c7.745-3.3,13.08-7.49,16.38-12.445c2.92-4.44,3.431-8.505,1.525-11.93
						c-2.03-3.81-5.08-5.715-9.271-5.845c-6.475,0.385-13.33,3.305-20.314,8.51c-7.11,5.33-11.806,9.9-14.22,13.71
						c-0.636,0.765-1.396,0.89-2.155,0.51c-0.385-0.255-0.635-0.635-0.635-1.015c-6.48,1.905-12.32,4.315-17.396,7.11
						c-5.08,2.92-8.635,5.075-10.795,6.6l-0.25,0.255l-0.385,0.125c-4.44,7.875-14.601,12.315-30.595,13.335
						c-13.08,0.38-22.6-2.16-28.825-7.62l-0.255-0.255l-6.22-0.635c0.635,0.38,0.765,0.89,0.635,1.4
						c-0.38,0.76-0.89,1.015-1.65,0.885l-6.475-1.905l-5.335,0.255c-0.76,0.38-1.14,1.145-1.265,2.285
						c-0.13,1.4,0.38,2.54,1.52,3.43c1.78,1.015,3.81,1.65,6.095,1.775l4.445-0.125h-0.125c0.76-0.255,1.27-0.125,1.775,0.38
						c0.255,0.76,0.255,1.27-0.38,1.78c-0.76,0.505-2.54,0.635-5.205,0.635c-2.67-0.13-5.08-0.765-7.365-2.035
						c-2.41-1.395-3.43-3.3-3.3-5.84l-3.3,1.015c-4.7,1.015-10.16,1.65-16.255,1.65l-13.71-1.14c2.41,2.795,6.73,6.22,13.205,10.41
						C56.117,67.522,57.768,66.257,59.922,65.492z M65.637,48.477c0.38,0.255,0.635,0.635,0.635,1.145v0.125
						c-0.255,0.89-1.015,1.655-2.415,2.16l-1.14,0.635l2.41,0.51c3.43,0.38,5.59-0.13,6.73-1.27c0.255-0.255,0.51-0.635,0.51-1.015
						v-0.13c-0.38-1.395-1.27-2.41-2.665-3.175l-2.67-1.015l-3.045,0.255C63.857,46.702,64.367,47.337,65.637,48.477z
						 M64.877,75.652c0.125,0.25,1.65,1.52,4.825,3.555c3.045,2.154,7.36,3.17,12.695,3.425c3.3-0.125,5.33-1.396,5.965-3.555
						c0.89-2.541-0.505-5.206-3.805-7.87c-3.175-1.905-6.985-3.175-11.555-3.81c-4.445-0.635-8.51-0.255-11.935,0.89
						c-2.92,1.27-4.7,3.175-5.335,5.84c-0.76,2.54-0.76,4.825-0.125,6.729l0.255-0.13c2.665-1.395,6.095-1.395,10.535,0
						l-3.805-3.045c-0.51-0.76-0.51-1.395,0.125-2.16L64.877,75.652z M61.192,136.722l13.585-0.38c5.97-2.16,10.03-4.825,12.19-8.13
						c2.16-3.17,3.175-5.075,3.175-5.585c0.255-0.891,0.76-1.271,1.65-1.016c0.76,0.381,1.015,1.016,0.89,1.905
						c0.125,0.76-1.4,3.431-4.445,7.745l5.965-0.38c1.02-3.05,3.05-5.97,6.225-8.635c3.045-2.795,6.22-5.08,9.395-7.235l4.695-3.305
						c2.795-2.79,4.575-6.096,5.08-9.9l0.51-2.035c0.38-0.885,0.885-1.27,1.905-1.015c0.885,0.255,1.27,0.89,1.015,1.78l-0.51,2.029
						c-0.505,4.065-2.54,7.87-5.965,11.301l-4.955,3.68c-3.045,1.905-6.09,4.32-9.14,6.985c-3.175,2.54-4.95,5.204-5.46,7.875
						c-0.255,2.915,0.51,5.454,2.285,7.489c2.415,2.155,4.19,3.176,5.205,3.176l7.11-7.365l-0.38-0.13
						c-2.41-0.886-3.81-1.016-4.06-0.505c-0.255,0.25-0.13,0.76,0.38,1.52c0.38,0.765,0.255,1.525-0.51,2.035
						c-0.76,0.505-1.52,0.38-2.03-0.385c-1.27-1.9-1.27-3.681-0.255-5.075c0.51-1.525,3.05-1.65,7.62-0.38
						c3.175,1.395,7.11,3.425,11.935,6.09c4.57,2.54,9.015,4.825,13.33,6.984c6.73,2.921,12.19,3.556,16.63,1.905
						c1.27-0.635,1.904-1.395,2.159-2.285c0.891-4.064-1.904-9.27-8.38-15.87c-3.425-4.569-4.694-9.27-4.06-14.35l-0.13-2.79
						c-2.285-1.524-4.695-2.67-7.365-3.43c-0.76-0.255-1.14-0.891-1.015-1.905c0.38-0.76,1.015-1.14,1.905-1.015
						c7.49,2.665,13.714,6.984,18.665,13.075c4.95,5.97,8.38,11.05,10.665,15.109c1.525,2.54,3.431,3.811,5.585,3.811
						c2.16,0,4.7-0.636,7.875-1.905l0.505-0.125c2.92-1.146,5.46-1.525,7.745-1.271c2.16,0.381,4.57,1.016,7.24,2.16
						c2.79,1.016,6.6,2.285,11.55,3.556c4.7,1.27,8.635,0.38,11.556-2.671c1.904-2.154,3.05-4.314,3.685-6.6
						c0.505-2.16,0.76-3.81,0.505-4.57l-0.125-1.649c-3.05-2.285-5.46-4.575-7.24-6.73l-14.22,6.476
						c1.78,3.3,4.065,4.824,6.855,4.824c2.415-0.255,3.81-1.145,4.064-2.539c0.255-0.761,0.635-1.146,1.525-1.146
						c0.635,0.255,1.015,0.635,1.015,1.525c-0.635,2.795-2.92,4.319-6.475,4.699c-1.271,0.256-3.175-0.38-5.585-1.779
						c-2.54-1.525-4.575-5.08-5.971-10.79c-1.015-5.335-1.015-9.78,0.131-12.95c1.14-3.305,2.664-5.46,4.569-6.605
						c2.285-1.395,4.315-1.395,6.22-0.125c0.306,0.306,0.476,0.615,0.476,0.98c0,0.235-0.07,0.495-0.22,0.795
						c-0.636,0.51-1.146,0.635-1.78,0.255l-3.3,0.125c-2.41,1.525-3.811,4.7-4.315,9.78l10.79-5.97
						c-0.265-1.646-0.41-3.311-0.42-4.99c-0.025-3.12,0.4-6.311,1.31-9.61c-4.699-2.16-8.505-2.41-11.43-0.76
						c-3.17,2.03-5.33,5.075-6.6,9.265c-1.146,4.19-1.905,7.62-2.16,10.285c-0.125,1.78-0.38,2.795-0.635,3.05
						c-1.521,1.521-4.061,1.521-7.87,0l-2.92-0.765c-1.016,0-2.16,0.765-3.681,2.415c-1.654,1.52-2.67,3.555-3.555,5.84
						c-0.255,0.89-0.89,1.271-1.905,1.015c-0.765-0.255-1.145-0.89-0.89-1.904c0.635-2.16,1.775-4.19,3.3-6.096
						c-1.27-0.885-2.92-2.539-5.08-4.569c-2.154-2.16-4.189-4.57-5.965-7.11l-3.175-5.46c-2.16-5.46-5.08-8.25-9.015-8.25
						c-4.445,0.76-7.235,3.68-8.38,8.76c-0.505,0.761-1.14,1.141-2.03,0.886c-0.76-0.506-1.145-1.141-0.89-2.03
						c0.89-2.41,2.03-4.57,3.43-6.73c1.52-2.029,3.81-3.3,6.855-3.805c0.51-1.27,0.635-2.67,0.255-4.19l-6.095,1.396
						c-3.175,5.08-7.745,7.365-13.585,6.729c-4.065-0.635-6.605-1.904-7.875-4.064l-6.09,0.38c0.635,3.05,3.68,4.955,9.14,5.59
						c1.015,0.125,1.525,0.635,1.525,1.521c0,1.02-0.51,1.524-1.525,1.524c-3.3,0-5.97-0.89-8-2.41l-7.745,14.98l2.415,1.905
						c0.505,0.76,0.505,1.524-0.13,2.16l-2.155-0.131c-2.035-1.904-4.445-3.045-6.985-3.425c0.51,1.9,0.76,3.936,0.76,6.345
						c-0.125,0.891-0.635,1.4-1.65,1.4c-0.89-0.13-1.395-0.635-1.395-1.525c-0.635-7.239-2.415-11.555-5.205-12.949
						c-0.38,2.665-1.145,5.71-2.54,9.14c-1.27,3.43-3.685,6.475-6.985,9.015c-6.22,3.681-10.155,5.335-12.06,4.7
						c0.125,3.3-1.395,5.965-4.7,7.87c-4.19,1.905-9.14,2.16-14.98,0.89C54.212,134.057,57.382,135.577,61.192,136.722z
						 M55.228,129.611c4.19,0.506,7.615,0.125,10.41-1.015c2.16-1.399,3.175-3.175,3.175-5.46c-0.255-3.305-0.635-5.08-1.015-5.59
						c-0.215-0.5-0.23-0.96-0.04-1.335c0.145-0.29,0.41-0.53,0.8-0.695c1.015-0.255,1.65,0,2.03,0.891
						c0.385,1.015,0.765,2.409,1.02,3.935c1.015,0.635,4.44-0.76,10.41-4.19c3.175-2.54,5.46-5.715,6.6-9.27
						c1.015-3.555,1.65-6.475,1.905-8.76l0.13-0.886c0.63-4.189,4.82-6.604,12.44-7.239c1.27,0,2.16-0.38,2.665-1.016
						c0.51-0.76,0.765-1.904,0.51-3.43c-6.475,0-12.445-0.505-18.03-1.52c-0.635,0.38-1.27,0.635-1.905,0.885h-0.125
						c-2.16,0.89-3.555,2.67-4.19,5.335l-0.13,0.125l0.51,0.635c0.635,0.635,0.635,1.4,0,2.16c-0.635,0.51-1.395,0.51-2.16,0
						l-6.345-8.505l-0.13-0.255l-3.175-1.146c5.84,5.205,8.76,9.78,8.635,13.585c0.38,3.686,0.125,6.476-1.27,8.255
						c-2.665,2.665-5.33,3.681-7.87,3.045c0.255,1.525,0,3.051-0.38,4.445c-0.395,1.271-1.39,2.34-3.005,3.15
						c-0.975,0.489-2.17,0.88-3.6,1.165c0,1.399-0.505,2.67-1.395,3.685c-1.4,1.525-3.3,2.16-5.585,2.03
						c-2.54-0.38-4.825-1.141-6.985-2.41s-3.555-2.415-4.19-3.175c-0.38-0.891-0.255-1.525,0.38-2.16
						c0.89-0.38,1.525-0.255,2.16,0.38c0.38,0.51,1.525,1.271,3.3,2.415c1.78,1.015,3.68,1.65,5.585,1.905
						c1.4,0.125,2.415-0.255,3.05-0.891c0.505-0.635,0.76-1.27,0.635-2.159c-0.89-3.556-3.3-6.98-7.365-10.155
						c-1.145-0.891-3.05-1.65-5.585-2.285l-7.11,0.255l-0.385,0.125l-1.015,0.635c-2.155,1.905-3.3,4.315-3.045,7.235
						c0.505,5.08,3.425,9.395,8.505,13.205C47.353,127.577,51.038,128.977,55.228,129.611z M75.667,139.262
						c-7.62,1.9-14.095,1.65-19.425-1.02c-5.205-2.535-8.635-5.33-10.155-8.125l-3.685-2.03c-2.41-1.65-4.57-3.936-6.6-6.601
						c-1.905-2.795-3.05-5.84-3.305-9.015c-0.25-3.939,1.145-7.11,4.19-9.649l0.765-0.636c-0.13-1.649,0.255-3.81,1.14-6.475
						c0.89-2.665,3.175-4.825,6.73-6.226l2.16-0.505c0.635-2.415,2.41-4.569,5.33-6.604l-0.125-0.125
						c-1.145-3.3-0.89-6.73,0.635-10.54c-8.89-5.965-14.35-10.535-16.38-13.965l-0.255-0.38c-3.045-1.015-5.205-2.285-6.6-3.81
						l-1.145-1.395c-4.695,0-9.52-0.89-14.6-2.92c-4.95-1.905-8.885-4.7-11.68-8.38c-2.54-3.43-3.045-6.985-1.65-10.54
						c1.395-3.935,4.315-6.35,8.505-7.235c5.46-0.89,11.3-0.13,17.395,2.285c6.22,2.285,10.795,4.695,13.84,7.11l4.445-4.315
						l-8.38-6.605l-4.445-0.255l-5.715,1.65c-0.76,0.385-1.27,0.255-1.65-0.25c0.13-0.635,0.635-1.02,1.4-1.4l5.33-2.03l6.6,0.255
						l8.635,6.6l0.38,0.255c2.54-2.16,5.59-4.19,9.145-6.095c10.41-5.585,23.105-9.395,38.34-11.425
						c16.255-2.285,31.49-2.415,45.71-0.51c5.46-4.695,9.14-7.365,10.92-8c1.524-0.38,4.06,0.255,7.234,1.655l7.365,3.17
						c0.89,0.385,1.145,0.89,1.015,1.4c-0.255,0.505-0.76,0.635-1.395,0.38l-8.255-3.175c-2.665-0.89-4.44-1.27-5.205-1.145
						c-1.396,0.765-4.19,2.795-8.25,6.095l5.585,1.02c17.14,4.19,29.71,8.885,37.71,14.09c5.965-1.65,11.17-3.3,15.49-5.075
						c7.109-5.21,13.965-7.875,20.949-8.255c5.205,0.255,9.266,2.665,11.806,7.49c2.415,4.445,1.78,9.52-1.775,15.11
						c-2.92,4.57-7.745,8.505-14.22,11.935c-6.605,3.3-14.475,5.205-23.87,5.71c-0.765,2.29-4.575,6.605-11.3,12.825
						c-6.73,6.35-18.03,11.935-33.521,16.76c0.38,1.65,0.38,3.3,0,4.95c4.695,1.525,7.87,4.825,9.65,9.78
						c0.76,1.774,1.775,3.555,2.79,5.205c1.78,2.409,3.685,4.569,5.84,6.729l4.825,4.44c1.78-1.65,3.43-2.285,5.08-2.03l7.745,1.775
						l0.255-1.521c0.255-3.05,1.14-6.729,2.54-11.425c1.27-4.57,3.935-8.13,7.745-10.54c3.935-2.03,8.76-1.78,14.345,0.89l0.51-0.51
						c2.41-2.16,5.075-3.555,7.745-4.065c2.285-0.63,3.81-1.395,4.695-2.665c0.635-1.015,0.13-2.54-1.775-4.569
						c-1.524-1.65-2.665-3.68-3.05-6.22c-0.125-2.92,1.525-5.585,4.955-7.745c4.695-2.54,9.395-2.285,14.345,0.89
						c4.445,3.935,6.601,7.745,6.351,11.55c0,5.845-1.4,9.78-3.936,12.19l-1.27,1.015c-1.905,1.271-3.431,3.05-4.575,5.21
						c-1.016,2.285-0.505,5.585,1.78,9.9c1.779,3.175,4.064,5.33,7.109,6.475c2.92,1.271,5.97,2.16,9.271,2.67l4.314,0.885
						c3.811,0.766,7.87,2.16,12.315,4.19c4.444,2.16,8,6.095,10.665,11.81c1.015,2.41,1.145,4.695,0.255,6.855
						c-0.76,1.65-1.775,2.795-2.92,3.68l-2.03,1.146l-0.765,0.125c0.13,1.78-0.25,3.555-0.761,5.08
						c-1.145,3.045-3.045,4.95-5.715,5.84c-4.689,0.76-8.12-0.255-10.285-2.79c-0.63,2.415-1.774,4.564-3.3,6.345
						c-1.904,2.03-4.06,3.05-6.475,2.92c-2.795-0.255-4.695-1.395-5.84-3.175c-1.141-1.9-2.16-4.314-2.92-7.235l-1.016-3.43
						c-2.665-7.36-6.475-12.82-11.68-16.505l-1.525-1.015c0.125,3.81-1.649,8-5.205,12.444c-1.27,1.521-3.045,2.665-5.46,3.551
						c-2.409,0.89-5.46,0.89-9.015,0.13c-5.205-1.396-9.14-2.665-11.81-3.811l-6.601-1.905c-1.774-0.25-3.935,0.131-6.35,1.016
						l-0.505,0.13c-2.795,1.27-5.716,1.905-8.761,2.155c-3.175,0.13-5.97-1.65-8.38-5.33l-6.604-10.03
						c-2.79-3.935-6.346-7.745-10.535-11.175v0.635c-0.385,4.57,0.635,8.635,3.17,12.19c2.795,2.665,5.08,5.585,7.115,8.885
						c2.029,3.43,2.79,6.604,2.154,9.78c-0.505,1.904-1.774,3.425-3.81,4.314c-2.03,1.016-4.44,1.396-7.36,1.141
						c-4.319-0.125-8.51-1.266-12.57-3.296l-21.08-11.175l-9.265,9.65c-1.015,0.125-2.285-0.255-3.555-0.891
						c-1.4-0.76-3.05-2.029-4.825-4.189c-1.905-2.03-2.92-4.695-2.92-7.745l-9.015,0.38
						C82.652,136.337,79.603,137.992,75.667,139.262z M50.657,88.981c5.965,1.525,10.28,3.811,13.2,6.985
						c2.54,2.535,4.32,5.585,5.59,8.885l2.285,0.38c1.27,0,2.54-0.635,3.935-2.029c0.635-0.636,0.76-2.665,0.51-5.966
						c0.25-3.305-2.54-7.364-8.13-12.064c-3.68-2.54-7.49-3.045-11.045-1.65C53.577,85.172,51.542,86.952,50.657,88.981z
						 M58.907,34.767c3.05,2.16,5.585,3.68,7.365,4.7l5.205,1.14c0.76-0.125,1.27-0.505,1.65-1.015
						c0.635-2.285,0.765-3.68,0.38-4.445c-0.25-0.505,0-0.89,0.385-1.015c0.635-0.125,1.015,0.125,1.14,0.76
						c0.765,0.765,0.635,2.67-0.38,5.715l-0.635,0.765c2.41,0.885,4.445,1.9,5.965,3.045l0.385,0.125l6.22,0.51l7.49-0.89
						c0.89-4.19,3.81-7.745,8.76-10.79l-1.14-1.015c-1.015-1.525-1.015-3.305-0.13-5.335c0.255-0.51,0.635-0.635,1.145-0.51
						c0.505,0.255,0.635,0.635,0.38,1.145c-0.635,1.395-0.635,2.54,0.125,3.555c0.635,0.635,1.4,0.89,2.29,0.76
						c2.665-1.265,5.585-2.285,8.885-3.045c1.905-1.27,4.57-3.3,8-5.84l14.98-12.06c-13.205-1.525-27.17-1.27-42.15,0.76
						c-14.855,2.16-27.3,5.84-37.205,11.17c-3.17,1.78-5.965,3.555-8.25,5.335L58.907,34.767z M54.592,103.962
						c3.3,2.415,5.965,5.715,8,9.905c2.285-0.125,3.68-0.891,4.315-2.41c1.015-3.811-0.76-8.255-5.205-13.335
						c-1.525-1.775-3.81-3.3-6.855-4.695c-3.05-1.525-5.84-1.78-8.51-1.145c-4.19,2.415-6.095,5.335-5.71,8.635
						C46.337,100.282,51.038,101.297,54.592,103.962z M136.232,84.917l1.905-1.775l-1.905,0.38V84.917z M126.708,86.441
						l-0.125-1.774l-3.05,0.38C124.167,85.552,125.313,85.937,126.708,86.441z M112.998,89.486c-1.015-1.265-1.65-2.534-1.905-3.935
						l-1.78,0.13c0.255,2.155-0.25,3.805-1.14,5.075c-1.145,1.4-2.665,2.16-4.825,2.29l-5.205,0.885
						c-2.16,0.635-3.685,1.65-4.32,3.305c2.035,0.761,3.935,3.171,5.84,6.855c1.525,0.125,3.305,0.505,5.335,1.27l5.08-9.779
						C111.217,93.297,112.232,91.392,112.998,89.486z M79.603,87.457l1.145-1.775l-2.54-0.255L79.603,87.457z M55.353,38.702
						l3.3,0.13l-11.045-8.76c-4.695,4.57-7.745,8.125-8.885,10.79C43.163,39.467,48.752,38.832,55.353,38.702z"/>
				</g>
			</g>
		</g>
	</g>
</g>
</svg>
