<?xml version="1.0" encoding="UTF-8" ?>

<!-- HTML5 in easy steps:example 76.1 Validated by the W3C Validation Service at validator.w3.org -->

<svg version="1.1" xmlns="http://www.w3.org/2000/svg" width="100%" height="100%" viewBox="0 0 120 75" preserveAspectRatio="none" >

	<g id="dp_group001" transform="matrix(1,0,0,1,-102.951,-154.54)">
		<path id="dp_path002" fill="#ff8a30" fill-rule="evenodd" stroke="none" stroke-width="0.896" d="M 172.808,172.215 C 176.388,170.763 176.483,170.689 178.923,169.636 C 179.529,168.956 179.953,168.157 180.755,167.981 C 181.447,166.964 182.157,166.464 183.133,165.728 C 185.524,163.9 185.737,163.697 186.561,163.045 C 187.405,162.372 188.184,161.751 189.283,160.871 L 190.164,160.163 L 190.496,159.895 L 191.029,158.837 L 197.357,157.131 L 197.237,155.853 C 194.94,156.064 194.512,156.115 193.256,156.245 C 192.599,156.317 191.964,156.387 191.296,156.465 C 190.84,156.52 190.376,156.577 189.855,156.647 C 189.516,156.696 189.379,156.571 187.899,157.009 C 186.125,157.56 185.559,157.973 184.431,158.581 C 183.973,158.831 184.201,158.705 183.747,158.955 C 183.229,159.245 183.383,159.072 182.619,159.601 C 182.552,159.651 182.493,159.696 182.437,159.74 C 180.717,161.164 180.153,162.187 179.336,163.224 C 178.308,164.532 176.732,166.597 175.617,168.163 L 170.283,166.459 L 172.816,163.071 L 176.608,159.348 L 177.58,158.025 L 182.325,155.895 L 182.005,155.075 C 179.927,155.593 179.815,155.612 177.467,156.284 C 176.945,156.435 176.425,156.588 175.863,156.765 C 175.644,156.836 175.161,156.787 173.929,157.487 C 173.051,158.02 172.783,158.468 172.669,158.587 C 172.379,158.9 172.124,159.193 171.88,159.484 C 171.012,160.539 170.303,161.511 169.523,162.643 C 169.097,163.264 168.953,163.481 168.58,164.061 C 168.364,164.401 168.472,164.229 168.259,164.572 C 168.093,164.84 167.847,165.128 167.791,165.412 C 167.789,165.441 167.84,165.444 167.863,165.465 C 168.112,165.715 168.023,165.641 168.143,165.789 C 168.367,166.077 168.515,166.277 168.663,166.475 C 170.46,168.912 170.96,169.685 172.08,171.292 C 172.643,172.103 172.58,172.305 172.808,172.215 Z "/>
		<path id="dp_path003" fill="#ff8a30" fill-rule="evenodd" stroke="none" stroke-width="0.896" d="M 150.043,166.728 C 150.308,166.728 143.352,161.623 141.24,161.535 S 133.051,162.239 133.051,162.239 S 133.051,163.12 133.051,163.12 S 138.245,163.383 138.245,163.383 S 139.125,164.176 139.125,164.176 S 147.403,168.491 147.403,168.491 S 143.264,171.836 143.264,171.836 S 135.78,166.905 133.931,166.641 S 129.617,166.024 128.032,166.2 S 119.139,168.491 119.139,168.491 S 119.492,169.723 119.492,169.723 S 126.007,169.017 126.007,169.017 S 126.887,169.812 126.887,169.812 S 136.308,172.804 137.1,172.892 S 139.565,174.301 139.565,174.301 S 131.377,180.113 131.377,180.113 S 127.239,178.616 126.359,178.351 S 118.083,177.559 118.083,177.559 S 117.995,176.679 117.289,176.679 S 114.561,178.351 114.561,178.351 S 109.629,185.308 109.629,185.308 S 104.172,194.992 104.172,194.992 S 106.812,193.408 106.812,193.408 S 109.631,187.86 110.245,187.245 S 117.377,178.88 118.171,179.232 S 130.849,183.107 130.849,183.107 S 134.196,188.213 134.196,188.213 S 127.856,187.949 125.567,187.949 S 121.604,188.125 121.516,188.125 S 119.755,187.421 119.755,187.421 S 118.435,189.709 118.523,190.325 S 117.641,190.855 117.641,190.855 S 111.479,200.1 111.392,200.1 S 110.157,202.74 110.069,202.829 S 108.221,209.872 108.221,209.872 S 111.831,208.64 112.359,207.408 S 114.737,201.068 114.737,201.068 S 116.851,197.283 117.555,196.401 S 119.931,193.056 119.931,193.056 S 120.988,193.144 120.988,193.144 S 125.391,191.999 126.799,191.911 S 135.604,190.239 135.604,190.239 S 136.396,191.295 136.396,191.295 S 146.521,181.083 146.521,180.905 S 149.779,166.728 150.043,166.728 Z "/>
		<path id="dp_path004" fill="#ff8a30" fill-rule="evenodd" stroke="none" stroke-width="0.896" stroke-linecap="round" d="M 187.693,181.881 C 187.641,181.995 191.544,181.403 195.493,181.811 S 203.821,186.281 203.821,186.281 S 203.431,190.772 202.844,195.807 S 198.545,206.288 198.281,205.76 S 198.06,211.853 197.427,212.661 S 193.853,216.861 193.853,216.861 S 192.513,216.811 192.513,216.811 S 192.423,218.543 192.423,218.543 S 189.296,221.219 183.699,223.837 S 171.337,222.577 170.409,221.141 S 169.519,219.313 169.519,219.313 S 170.833,220.035 172.819,219.556 S 178.749,217.564 181.64,215.512 S 187.749,211.281 187.668,211.313 S 185.848,210.503 185.848,210.503 S 185.632,211.907 185.632,211.907 S 183.824,211.373 183.793,211.291 S 183.544,213.607 183.544,213.607 S 181.492,212.175 181.409,212.205 S 181.236,213.969 181.236,213.969 S 179.985,213.412 179.953,213.331 S 179.352,215.343 179.352,215.343 S 177.355,214.421 177.324,214.34 S 177.361,216.423 177.361,216.423 S 176.416,215.708 175.8,215.796 S 175.437,217.044 175.437,217.044 S 174.041,216.352 174.041,216.352 S 173.775,217.869 173.775,217.869 S 172.036,217.028 172.068,217.109 S 172.017,218.449 172.017,218.449 S 171.093,217.767 170.924,218.415 S 169.388,218.976 169.471,218.944 S 168.919,217.752 169.731,215.932 S 174.307,209.179 176.033,208.516 S 182.469,205.385 182.469,205.385 S 181.777,203.577 181.777,203.577 S 183.112,202.877 183.112,202.877 S 194.864,200.819 194.864,200.819 S 197.068,196.484 197.068,196.484 S 199.967,192.732 199.967,192.732 S 201.629,190.68 201.629,190.68 S 202.751,187.703 202.751,187.703 S 199.055,186.669 199.055,186.669 S 194.045,189.345 192.016,189.464 S 187.408,190.477 186.744,188.752 S 185.515,186.772 185.515,186.772 S 187.743,181.767 187.693,181.881 Z "/>
		<path id="dp_path005" fill="#ff8a30" fill-rule="evenodd" stroke="none" stroke-width="0.896" d="M 221.079,189.056 C 221.66,189.049 220.984,189.064 221.436,189.049 L 220.789,188.132 L 220.125,187.189 L 219.36,186.108 C 218.999,185.599 218.644,185.103 218.231,184.524 C 217.553,183.581 218.481,184.639 217.22,183.149 C 215.735,181.56 214.579,180.795 212.836,179.575 C 211.769,178.828 212.304,179.204 211.241,178.453 C 210.401,177.861 209.603,177.297 208.724,176.675 L 207.271,175.644 L 205.855,174.637 C 205.664,174.725 205.436,174.877 205.08,174.751 C 204.839,174.651 204.821,174.38 204.78,174.297 C 204.265,173.392 204.163,173.535 203.799,173.187 C 203.239,172.66 203.179,172.615 202.657,172.184 C 202.42,172.409 202.165,172.651 201.991,172.815 C 201.908,172.891 201.96,173.071 201.263,173.469 C 199.352,174.075 197.512,174.696 195.887,175.357 C 194.283,176.016 193.056,176.535 191.407,177.235 L 190.393,177.667 C 189.671,177.975 190.324,177.695 189.448,178.071 C 189.659,177.108 189.747,177.289 188.591,178.121 C 188.539,178.16 188.575,178.131 188.52,178.176 C 188.377,178.401 188.496,178.62 188.496,178.68 C 188.509,179.296 188.531,179.711 188.557,180.245 L 188.581,180.715 C 188.603,181.072 188.639,181.171 188.651,181.171 C 188.867,180.417 188.311,180.548 189.176,180.415 C 191.068,180.115 191.828,180.005 194.667,179.507 C 196.828,179.12 198.939,178.573 201.117,178.272 C 201.88,178.169 202.123,178.132 203.545,177.969 L 204.5,177.511 C 204.869,177.767 204.595,177.576 204.899,177.787 C 206.131,178.639 205.797,178.287 208.379,180.099 C 210.519,181.64 210.323,181.591 211.409,182.483 C 211.868,182.859 211.615,182.652 212.065,183.025 L 212.211,183.145 C 213.459,184.589 213.685,184.901 215.96,187.428 L 219.185,188.976 C 219.799,189.036 220.201,189.059 221.079,189.056 Z "/>
		<path id="dp_path006" fill="#ff8a30" fill-rule="evenodd" stroke="none" stroke-width="0.896" d="M 130.328,181.7 C 131.365,183.625 138.475,190.587 143.955,191.179 S 154.469,192.216 161.135,191.475 S 181.129,185.255 184.091,180.811 S 189.275,174.888 188.385,173.999 S 187.349,171.48 184.684,171.332 S 177.723,169.111 174.167,167.925 S 166.171,164.075 163.653,164.075 S 158.913,165.853 157.876,165.705 S 156.543,164.964 153.581,165.261 S 143.511,171.925 141.585,172.961 S 129.292,179.775 130.328,181.7 Z "/>
		<path id="dp_path007" fill="#ff8a30" fill-rule="evenodd" stroke="none" stroke-width="0.896" d="M 186.143,171.836 C 186.231,171.66 189.488,169.811 189.576,169.811 S 195.476,165.056 195.476,165.056 S 198.645,164.176 204.368,168.049 S 212.205,173.773 212.205,173.773 S 214.845,174.125 214.845,174.125 S 208.241,168.577 206.745,167.609 S 199.791,162.767 199.791,162.767 S 198.645,161.887 197.413,161.975 S 195.564,163.207 195.564,163.207 S 189.664,165.232 188.696,165.672 S 183.501,170.075 183.237,170.867 S 186.055,172.012 186.143,171.836 Z "/>
		<path id="dp_path008" fill="#ed6301" fill-rule="evenodd" stroke="none" stroke-width="0.896" d="M 131.553,183.547 C 131.731,183.635 139.037,189.711 139.743,189.885 S 150.22,192.528 156.999,191.735 S 173.464,188.653 177.779,185.659 S 187.111,177.999 187.288,176.855 S 188.344,174.919 188.344,174.919 S 189.664,174.653 188.96,178.792 S 187.2,188.741 182.268,192.615 S 173.728,197.809 169.679,198.427 S 161.489,199.659 158.056,199.659 S 149.252,200.012 144.408,197.457 S 136.044,191.207 134.548,188.829 S 131.377,183.459 131.553,183.547 Z "/>
		<path id="dp_path009" fill="#ff8a30" fill-rule="evenodd" stroke="none" stroke-width="0.896" stroke-linecap="round" d="M 136.396,191.295 C 136.485,191.383 131.289,192.175 129.088,194.024 S 122.749,201.244 122.749,201.244 S 125.303,207.056 126.095,208.464 S 134.899,217.444 134.899,217.444 S 137.453,222.992 138.333,223.52 S 143.176,226.161 143.176,226.161 S 144.408,225.633 144.408,225.633 S 145.113,227.217 145.113,227.217 S 149.339,228.275 155.503,228.715 S 166.244,223.432 166.596,221.759 S 166.773,219.733 166.773,219.733 S 165.804,220.879 163.779,221.143 S 157.527,221.407 154.095,220.527 S 146.875,218.765 146.961,218.765 S 148.371,217.356 148.371,217.356 S 149.075,218.589 149.075,218.589 S 150.572,217.444 150.572,217.356 S 151.629,218.677 151.629,218.677 S 153.037,217.356 153.125,217.356 S 153.917,218.941 153.917,218.941 S 154.885,217.973 154.885,217.884 S 156.031,218.941 156.031,218.941 S 157.704,217.973 157.704,217.884 S 158.143,219.381 158.143,219.381 S 159.376,218.236 159.376,218.236 S 160.433,219.733 160.433,219.733 S 161.489,218.589 161.489,218.589 S 162.283,219.911 162.283,219.911 S 163.603,218.503 163.603,218.589 S 164.131,219.821 164.131,219.821 S 164.748,218.853 164.835,218.853 S 166.42,218.941 166.332,218.941 S 166.773,218.061 165.364,216.652 S 158.672,211.987 156.823,211.987 S 149.692,211.369 149.692,211.369 S 149.692,209.432 149.692,209.432 S 148.193,209.256 148.193,209.256 S 136.485,211.545 136.485,211.545 S 132.873,208.288 132.873,208.288 S 128.825,205.823 128.825,205.823 S 126.536,204.501 126.536,204.501 S 124.421,202.125 124.421,202.125 S 127.504,199.836 127.504,199.836 S 133.139,200.54 135.076,199.923 S 139.743,199.22 139.743,197.369 S 140.183,195.08 140.183,195.08 S 136.308,191.207 136.396,191.295 Z "/>
		<path id="dp_path010" fill="none" fill-rule="evenodd" stroke="#ff4400" stroke-width="0.896" d="M 130.328,181.7 C 131.365,183.625 138.475,190.587 143.955,191.179 S 154.469,192.216 161.135,191.475 S 181.129,185.255 184.091,180.811 S 189.275,174.888 188.385,173.999 S 187.349,171.48 184.684,171.332 S 177.723,169.111 174.167,167.925 S 166.171,164.075 163.653,164.075 S 158.913,165.853 157.876,165.705 S 156.543,164.964 153.581,165.261 S 143.511,171.925 141.585,172.961 S 129.292,179.775 130.328,181.7 Z "/>
		<path id="dp_path011" fill="none" fill-rule="evenodd" stroke="#ff4400" stroke-width="0.896" stroke-linecap="round" d="M 130.92,183.033 C 130.92,183.033 137.141,193.548 141.14,195.771 S 148.989,200.657 162.468,199.473 S 176.685,196.807 182.313,192.364 S 190.164,177.405 188.831,175.036"/>
		<path id="dp_path012" fill="white" fill-rule="evenodd" stroke="#871f00" stroke-width="0.896" d="M 165.217,193.017 C 166.847,192.869 169.165,192.812 169.905,194.499 S 170.696,199.68 167.291,200.523 S 162.749,197.904 162.651,196.671 S 163.588,193.165 165.217,193.017 Z "/>
		<path id="dp_path013" fill="black" fill-rule="evenodd" stroke="#871f00" stroke-width="0.896" d="M 167.011,196.333 C 167.611,196.333 168.097,196.775 168.097,197.32 C 168.097,197.865 167.611,198.307 167.011,198.307 C 166.411,198.307 165.924,197.865 165.924,197.32 C 165.924,196.775 166.411,196.333 167.011,196.333 Z "/>
		<path id="dp_path014" fill="white" fill-rule="evenodd" stroke="#871f00" stroke-width="0.896" d="M 158.756,193.609 C 157.127,193.461 154.808,193.404 154.067,195.091 S 153.276,200.272 156.683,201.115 S 161.224,198.496 161.323,197.263 S 160.385,193.757 158.756,193.609 Z "/>
		<path id="dp_path015" fill="black" fill-rule="evenodd" stroke="#871f00" stroke-width="0.896" d="M 156.961,196.925 C 156.361,196.925 155.875,197.367 155.875,197.912 C 155.875,198.457 156.361,198.899 156.961,198.899 C 157.561,198.899 158.048,198.457 158.048,197.912 C 158.048,197.367 157.561,196.925 156.961,196.925 Z "/>
		<path id="dp_path016" fill="none" fill-rule="evenodd" stroke="#ff4400" stroke-width="0.896" d="M 130.744,182.847 C 130.744,182.847 127.285,181.857 125.212,181.165 S 118.795,179.388 118.795,179.388 S 117.611,177.908 118.103,177.612 S 123.435,177.809 124.916,178.105 S 130.445,179.291 130.939,179.883"/>
		<path id="dp_path017" fill="none" fill-rule="evenodd" stroke="#ff4400" stroke-width="0.896" stroke-linecap="round" d="M 118.004,177.217 C 118.004,177.217 117.511,176.525 115.832,177.217 S 104.379,193.903 104.083,195.088 S 106.649,193.804 106.847,192.915 S 114.253,180.572 118.596,179.488"/>
		<path id="dp_path018" fill="none" fill-rule="evenodd" stroke="#ff4400" stroke-width="0.896" d="M 114.747,178.007 C 114.747,178.204 114.944,179.784 116.82,180.376"/>
		<path id="dp_path019" fill="none" fill-rule="evenodd" stroke="#ff4400" stroke-width="0.896" d="M 110.105,184.72 C 110.205,184.917 110.303,185.905 111.191,185.905"/>
		<path id="dp_path020" fill="none" fill-rule="evenodd" stroke="#ff4400" stroke-width="0.896" d="M 109.119,186.696 C 109.119,186.696 109.316,187.584 110.205,187.584"/>
		<path id="dp_path021" fill="none" fill-rule="evenodd" stroke="#ff4400" stroke-width="0.896" stroke-linecap="round" d="M 133.704,188.176 C 133.704,188.176 128.372,187.681 126.496,187.681 S 121.757,188.077 121.46,188.077 S 120.176,187.485 119.88,187.485 S 118.301,189.855 118.795,191.435 S 120.868,193.311 121.46,192.915 S 130.741,191.336 132.223,191.139 S 135.284,190.447 135.481,190.249"/>
		<path id="dp_path022" fill="none" fill-rule="evenodd" stroke="#ff4400" stroke-width="0.896" stroke-linecap="round" d="M 118.499,189.756 C 118.499,189.756 115.635,194.003 114.944,194.891 S 110.5,200.617 110.105,202.492 S 107.735,209.997 108.131,209.997 S 111.883,208.417 112.376,207.232 S 113.561,205.159 113.759,204.172 S 115.141,201.111 115.931,199.037 S 118.795,194.891 119.189,194.595 S 120.077,193.508 119.979,193.212"/>
		<path id="dp_path023" fill="none" fill-rule="evenodd" stroke="#ff4400" stroke-width="0.896" d="M 111.587,199.235 C 111.685,199.432 112.376,201.308 115.043,201.308"/>
		<path id="dp_path024" fill="none" fill-rule="evenodd" stroke="#ff4400" stroke-width="0.896" d="M 110.303,201.9 C 110.501,202.196 111.389,204.764 113.561,204.172"/>
		<path id="dp_path025" fill="none" fill-rule="evenodd" stroke="#ff4400" stroke-width="0.896" d="M 139.529,174.056 C 139.529,174.056 135.975,171.983 134.988,171.884 S 127.483,170.205 126.991,169.712 S 127.285,166.453 128.273,166.256 S 132.025,166.157 134.493,167.047 S 143.183,171.785 143.183,171.785"/>
		<path id="dp_path026" fill="none" fill-rule="evenodd" stroke="#ff4400" stroke-width="0.896" stroke-linecap="round" d="M 128.175,166.256 C 128.175,166.256 120.951,167.836 119.609,168.429 S 119.609,170.008 120.435,169.909 S 125.801,168.823 126.524,169.219"/>
		<path id="dp_path027" fill="none" fill-rule="evenodd" stroke="#ff4400" stroke-width="0.896" stroke-linecap="round" d="M 131.137,166.453 C 131.137,166.453 127.879,167.639 128.668,169.812"/>
		<path id="dp_path028" fill="none" fill-rule="evenodd" stroke="#ff4400" stroke-width="0.896" stroke-linecap="round" d="M 137.455,168.627 C 137.455,168.627 134.791,169.515 135.087,171.983"/>
		<path id="dp_path029" fill="none" fill-rule="evenodd" stroke="#ff4400" stroke-width="0.896" stroke-linecap="round" d="M 140.22,170.108 C 140.22,170.108 137.356,170.009 137.356,172.872"/>
		<path id="dp_path030" fill="none" fill-rule="evenodd" stroke="#ff4400" stroke-width="0.896" d="M 123.773,201.145 C 123.82,201.549 127.373,205.599 128.829,205.888 S 136.516,211.076 136.412,211.86 S 133.76,214.869 134.875,217.093 S 128.085,211.567 126.304,208.445 S 122.751,202.107 122.789,201.812 S 123.725,200.74 123.773,201.145 Z "/>
		<path id="dp_path031" fill="none" fill-rule="evenodd" stroke="#ff4400" stroke-width="0.896" d="M 124.467,201.933 C 124.479,201.835 126.621,199.924 127.723,199.869 S 139.9,201.92 140.251,195.451"/>
		<path id="dp_path032" fill="none" fill-rule="evenodd" stroke="#ff4400" stroke-width="0.896" stroke-linecap="round" d="M 122.671,201.2 C 122.671,201.2 126.428,193.028 136.419,191.248"/>
		<path id="dp_path033" fill="none" fill-rule="evenodd" stroke="#ff4400" stroke-width="0.896" stroke-linecap="round" d="M 135.623,214.843 C 135.623,214.843 142.944,219.783 145.515,219.92 S 150.516,210.616 149.652,209.607 S 137.588,211.249 136.641,211.624"/>
		<path id="dp_path034" fill="none" fill-rule="evenodd" stroke="#ff4400" stroke-width="0.896" stroke-linecap="round" d="M 147.32,219.061 C 147.32,219.061 160.157,222.929 164.1,220.956 S 167.536,219.813 166.445,222.06 S 160.997,232.029 145.828,227.429 C 142.848,226.525 145.357,219.601 145.293,220.091"/>
		<path id="dp_path035" fill="none" fill-rule="evenodd" stroke="#ff4400" stroke-width="0.896" stroke-linecap="round" d="M 144.232,225.163 C 144.232,225.163 144.108,226.111 143.24,225.896 S 138.161,225.132 134.899,217.337"/>
		<path id="dp_path036" fill="none" fill-rule="evenodd" stroke="#ff4400" stroke-width="0.896" stroke-linecap="round" d="M 148.725,217.452 C 148.687,217.747 148.879,218.568 149.368,218.632 S 150.364,217.368 150.753,217.419 S 151.033,218.849 151.815,218.952 S 152.869,217.496 153.195,217.539 S 153.493,219.072 153.983,219.136 S 154.763,217.743 155.153,217.795 S 155.757,219.268 156.149,219.319 S 157.288,217.975 157.613,218.017 S 157.813,219.537 158.401,219.613 S 159.292,218.136 159.683,218.187 S 159.685,219.683 160.285,219.661 S 161.171,218.483 161.563,218.533 S 161.852,219.865 162.343,219.931 S 163.111,218.636 163.501,218.687 S 163.653,219.803 164.045,219.855 S 164.845,219.061 164.845,219.061 S 166.361,219.659 166.476,218.777 S 165.235,215.329 161.105,213.395 S 153.192,211.464 150.035,211.251"/>
		<path id="dp_path037" fill="none" fill-rule="evenodd" stroke="#ff4400" stroke-width="0.896" d="M 147.424,168.405 C 147.424,168.405 145.035,166.511 144.32,166.333 S 138.989,164.312 138.679,163.899 S 139.239,161.539 139.985,161.499 S 142.748,161.82 144.467,162.732 S 150.344,167.124 150.344,167.124"/>
		<path id="dp_path038" fill="none" fill-rule="evenodd" stroke="#ff4400" stroke-width="0.896" stroke-linecap="round" d="M 139.912,161.488 C 139.912,161.488 134.445,161.887 133.399,162.18 S 133.232,163.339 133.849,163.353 S 137.901,163.121 138.389,163.487"/>
		<path id="dp_path039" fill="none" fill-rule="evenodd" stroke="#ff4400" stroke-width="0.896" stroke-linecap="round" d="M 142.064,161.943 C 142.064,161.943 139.549,162.471 139.9,164.148"/>
		<path id="dp_path040" fill="none" fill-rule="evenodd" stroke="#ff4400" stroke-width="0.896" stroke-linecap="round" d="M 146.475,164.203 C 146.475,164.203 144.424,164.575 144.383,166.417"/>
		<path id="dp_path041" fill="none" fill-rule="evenodd" stroke="#ff4400" stroke-width="0.896" stroke-linecap="round" d="M 148.347,165.58 C 148.347,165.58 146.256,165.207 145.955,167.308"/>
		<path id="dp_path042" fill="none" fill-rule="evenodd" stroke="#ff4400" stroke-width="0.896" stroke-linecap="round" d="M 186.704,171.855 C 186.704,171.855 188.811,170.455 190.489,169.057 S 195.821,165.067 195.821,165.067 S 196.387,163.256 195.82,163.16 S 191.277,164.931 188.857,165.832 S 183.697,170.36 183.453,171.091"/>
		<path id="dp_path043" fill="none" fill-rule="evenodd" stroke="#ff4400" stroke-width="0.896" stroke-linecap="round" d="M 195.768,162.756 C 195.768,162.756 195.976,161.932 197.791,161.965 S 214.529,173.343 215.237,174.339 S 212.377,174.077 211.871,173.321 S 200.483,164.517 196.041,165.087"/>
		<path id="dp_path044" fill="none" fill-rule="evenodd" stroke="#ff4400" stroke-width="0.896" d="M 199.089,162.307 C 199.161,162.491 199.552,164.033 198.02,165.268"/>
		<path id="dp_path045" fill="none" fill-rule="evenodd" stroke="#ff4400" stroke-width="0.896" d="M 205.855,166.872 C 205.833,167.092 206.103,168.048 205.275,168.372"/>
		<path id="dp_path046" fill="none" fill-rule="evenodd" stroke="#ff4400" stroke-width="0.896" d="M 207.493,168.353 C 207.493,168.353 207.632,169.253 206.804,169.576"/>
		<path id="dp_path047" fill="none" fill-rule="evenodd" stroke="#ff4400" stroke-width="0.896" stroke-linecap="round" d="M 189.223,178.2 C 189.223,178.2 194.804,175.536 196.552,174.853 S 201.111,173.497 201.387,173.389 S 202.367,172.371 202.643,172.263 S 204.976,173.896 205.091,175.547 S 203.841,178.048 203.147,177.896 S 193.927,179.8 192.475,180.155 S 189.372,180.625 189.116,180.513"/>
		<path id="dp_path048" fill="none" fill-rule="evenodd" stroke="#ff4400" stroke-width="0.896" stroke-linecap="round" d="M 204.756,173.876 C 204.756,173.876 208.968,176.789 209.935,177.365 S 216.157,181.083 217.207,182.688 S 222.144,188.815 221.776,188.959 S 217.707,188.852 216.816,187.928 S 214.957,186.428 214.415,185.58 S 212.013,183.231 210.524,181.587 S 206.348,178.767 205.872,178.633 S 204.649,177.945 204.633,177.633"/>
		<path id="dp_path049" fill="none" fill-rule="evenodd" stroke="#ff4400" stroke-width="0.896" d="M 214.643,180.191 C 214.623,180.411 214.661,182.409 212.177,183.379"/>
		<path id="dp_path050" fill="none" fill-rule="evenodd" stroke="#ff4400" stroke-width="0.896" d="M 216.808,182.207 C 216.731,182.555 216.837,185.271 214.599,185.508"/>
		<path id="dp_path051" fill="none" fill-rule="evenodd" stroke="#ff4400" stroke-width="0.896" stroke-linecap="round" d="M 179.137,169.531 C 179.137,169.531 182.752,165.159 183.636,164.708 S 190.016,160.413 190.296,159.775 S 188.836,156.848 187.844,157.023 S 184.313,158.295 182.336,160.021 S 175.703,167.949 175.703,167.949"/>
		<path id="dp_path052" fill="none" fill-rule="evenodd" stroke="#ff4400" stroke-width="0.896" stroke-linecap="round" d="M 187.935,156.987 C 187.935,156.987 195.239,155.831 196.704,155.895 S 197.279,157.365 196.473,157.575 S 191.079,158.515 190.551,159.145"/>
		<path id="dp_path053" fill="none" fill-rule="evenodd" stroke="#ff4400" stroke-width="0.896" stroke-linecap="round" d="M 185.248,158.248 C 185.248,158.248 188.712,158.167 188.768,160.477"/>
		<path id="dp_path054" fill="none" fill-rule="evenodd" stroke="#ff4400" stroke-width="0.896" stroke-linecap="round" d="M 180.152,162.569 C 180.152,162.569 182.871,162.164 183.492,164.571"/>
		<path id="dp_path055" fill="none" fill-rule="evenodd" stroke="#ff4400" stroke-width="0.896" stroke-linecap="round" d="M 178.115,164.956 C 178.115,164.956 180.747,163.821 181.788,166.489"/>
		<path id="dp_path056" fill="none" fill-rule="evenodd" stroke="#ff4400" stroke-width="0.896" d="M 202.779,186.517 C 202.885,186.909 201.077,191.985 199.831,192.791 S 194.601,200.449 194.984,201.139 S 198.203,203.437 198.508,205.844 S 202.615,197.796 203.121,194.237 S 204.084,187.033 203.941,186.776 S 202.675,186.124 202.779,186.517 Z "/>
		<path id="dp_path057" fill="none" fill-rule="evenodd" stroke="#ff4400" stroke-width="0.896" d="M 202.425,187.505 C 202.377,187.42 199.681,186.433 198.636,186.789 S 188.352,193.079 185.912,187.884"/>
		<path id="dp_path058" fill="none" fill-rule="evenodd" stroke="#ff4400" stroke-width="0.896" stroke-linecap="round" d="M 203.825,186.161 C 203.825,186.161 198.503,179.952 188.559,181.984"/>
		<path id="dp_path059" fill="none" fill-rule="evenodd" stroke="#ff4400" stroke-width="0.896" stroke-linecap="round" d="M 196.819,203.621 C 196.819,203.621 191.837,210.913 189.499,211.989 S 181.419,205.187 181.849,203.931 S 193.668,201.005 194.685,201.005"/>
		<path id="dp_path060" fill="none" fill-rule="evenodd" stroke="#ff4400" stroke-width="0.896" stroke-linecap="round" d="M 187.504,211.857 C 187.504,211.857 177,220.189 172.607,219.809 S 168.992,220.013 170.835,221.7 S 179.576,228.957 191.979,219.084 C 194.415,217.145 189.527,211.635 189.767,212.067"/>
		<path id="dp_path061" fill="none" fill-rule="evenodd" stroke="#ff4400" stroke-width="0.896" stroke-linecap="round" d="M 192.625,216.389 C 192.625,216.389 193.091,217.224 193.819,216.705 S 198.256,214.121 198.412,205.672"/>
		<path id="dp_path062" fill="none" fill-rule="evenodd" stroke="#ff4400" stroke-width="0.896" stroke-linecap="round" d="M 185.604,210.88 C 185.748,211.139 185.873,211.973 185.443,212.213 S 184.051,211.407 183.707,211.597 S 183.975,213.031 183.285,213.413 S 181.768,212.449 181.481,212.609 S 181.771,214.144 181.34,214.384 S 180.1,213.377 179.756,213.569 S 179.739,215.163 179.393,215.355 S 177.837,214.525 177.551,214.684 S 177.927,216.171 177.409,216.459 S 176.036,215.415 175.691,215.605 S 176.24,216.996 175.673,217.199 S 174.416,216.429 174.072,216.621 S 174.293,217.967 173.863,218.207 S 172.671,217.287 172.327,217.479 S 172.596,218.572 172.251,218.764 S 171.215,218.324 171.215,218.324 S 170.027,219.437 169.595,218.661 S 169.477,214.999 172.6,211.677 S 179.243,206.963 182.1,205.599"/>
		<path id="dp_path063" fill="none" fill-rule="evenodd" stroke="#ff4400" stroke-width="0.896" stroke-linecap="round" d="M 170.787,165.991 C 170.787,165.991 172.323,163.355 172.924,162.932 S 177.155,159.109 177.292,158.611 S 175.913,156.616 175.203,156.849 S 172.745,158.155 171.477,159.629 S 167.776,165.241 167.776,165.241"/>
		<path id="dp_path064" fill="none" fill-rule="evenodd" stroke="#ff4400" stroke-width="0.896" stroke-linecap="round" d="M 175.267,156.815 C 175.267,156.815 180.504,155.197 181.585,155.089 S 182.163,156.108 181.593,156.347 S 177.735,157.605 177.412,158.123"/>
		<path id="dp_path065" fill="none" fill-rule="evenodd" stroke="#ff4400" stroke-width="0.896" stroke-linecap="round" d="M 173.427,158.021 C 173.427,158.021 175.961,157.597 176.245,159.288"/>
		<path id="dp_path066" fill="none" fill-rule="evenodd" stroke="#ff4400" stroke-width="0.896" stroke-linecap="round" d="M 170.143,161.729 C 170.143,161.729 172.011,161.155 172.72,162.855"/>
		<path id="dp_path067" fill="none" fill-rule="evenodd" stroke="#ff4400" stroke-width="0.896" stroke-linecap="round" d="M 168.897,163.695 C 168.897,163.695 170.709,162.587 171.755,164.433"/>
	</g>
</svg>